<svg width="65" height="64" viewBox="0 0 65 64" fill="none" xmlns="http://www.w3.org/2000/svg">
<g clip-path="url(#clip0_48_132)">
<path d="M61.6597 0H3.65967C2.00281 0 0.659668 1.34315 0.659668 3V61C0.659668 62.6569 2.00281 64 3.65967 64H61.6597C63.3165 64 64.6597 62.6569 64.6597 61V3C64.6597 1.34315 63.3165 0 61.6597 0Z" fill="#3178C6"/>
<path fill-rule="evenodd" clip-rule="evenodd" d="M37.7908 49.734V56.747C38.927 57.331 40.2707 57.7695 41.822 58.0615C43.3734 58.354 45.0084 58.5 46.7273 58.5C48.4024 58.5 49.9938 58.3395 51.5012 58.018C53.0092 57.6965 54.3307 57.167 55.4672 56.429C56.6032 55.691 57.5027 54.727 58.1657 53.536C58.8282 52.3455 59.1597 50.8735 59.1597 49.1203C59.1597 47.8493 58.9702 46.7353 58.5917 45.7783C58.2127 44.8214 57.6667 43.9704 56.9527 43.2252C56.2392 42.4801 55.3832 41.8117 54.3857 41.22C53.3877 40.6283 52.2627 40.0694 51.0097 39.5435C50.0921 39.1636 49.2691 38.7947 48.5408 38.4368C47.8124 38.0788 47.1934 37.7136 46.6836 37.341C46.1737 36.9684 45.7804 36.574 45.5037 36.1576C45.2269 35.7413 45.0885 35.27 45.0885 34.7441C45.0885 34.2619 45.2123 33.8273 45.46 33.4402C45.7076 33.053 46.0572 32.7206 46.5088 32.443C46.9603 32.1655 47.5138 31.95 48.1693 31.7966C48.8248 31.6431 49.5531 31.5664 50.3543 31.5664C50.9372 31.5664 51.5522 31.6103 52.2007 31.6979C52.8487 31.7856 53.5007 31.9207 54.1562 32.1034C54.8117 32.286 55.4487 32.5161 56.0682 32.7937C56.6872 33.0713 57.2587 33.3927 57.7832 33.7579V27.2054C56.7197 26.7963 55.5582 26.4931 54.2982 26.2959C53.0382 26.0986 51.5927 26 49.961 26C48.3004 26 46.7273 26.1789 45.2415 26.5369C43.7557 26.8948 42.4484 27.4537 41.3195 28.2134C40.1906 28.9731 39.2984 29.941 38.6429 31.1171C37.9874 32.2932 37.6597 33.6995 37.6597 35.3358C37.6597 37.4251 38.2605 39.2074 39.4623 40.683C40.664 42.1587 42.4884 43.4079 44.9356 44.4305C45.897 44.825 46.7928 45.2122 47.6231 45.592C48.4534 45.9719 49.1708 46.3664 49.7753 46.7755C50.3798 47.1846 50.8567 47.6302 51.2062 48.1123C51.5562 48.5944 51.7307 49.1423 51.7307 49.7559C51.7307 50.209 51.6217 50.629 51.4032 51.016C51.1847 51.403 50.8532 51.739 50.4089 52.024C49.9646 52.309 49.4111 52.532 48.7483 52.6925C48.0856 52.853 47.3099 52.9335 46.4214 52.9335C44.9064 52.9335 43.4061 52.667 41.9203 52.1335C40.4346 51.6005 39.0581 50.8005 37.7908 49.734ZM26.011 32.2772H35.1597V26.5H9.65967V32.2772H18.7636V58H26.011V32.2772Z" fill="white"/>
</g>
<defs>
<clipPath id="clip0_48_132">
<rect width="64" height="64" fill="white" transform="translate(0.659668)"/>
</clipPath>
</defs>
</svg>
