<svg width="106" height="64" viewBox="0 0 106 64" fill="none" xmlns="http://www.w3.org/2000/svg">
<g clip-path="url(#clip0_48_184)">
<mask id="mask0_48_184" style="mask-type:luminance" maskUnits="userSpaceOnUse" x="0" y="0" width="106" height="63">
<path d="M0.331055 0H105.058V62.8364H0.331055V0Z" fill="white"/>
</mask>
<g mask="url(#mask0_48_184)">
<path fill-rule="evenodd" clip-rule="evenodd" d="M52.6947 0C38.7311 0 30.0038 6.98182 26.5129 20.9455C31.7492 13.9636 37.8583 11.3455 44.8401 13.0909C48.8237 14.0858 51.6707 16.9775 54.8222 20.1755C59.9558 25.3867 65.8981 31.4182 78.8765 31.4182C92.8401 31.4182 101.567 24.4364 105.058 10.4727C99.822 17.4545 93.7129 20.0727 86.731 18.3273C82.7475 17.3324 79.9005 14.4407 76.749 11.2427C71.6154 6.03151 65.6731 0 52.6947 0ZM26.5129 31.4182C12.5492 31.4182 3.82196 38.4 0.331055 52.3636C5.56742 45.3818 11.6765 42.7636 18.6583 44.5091C22.6418 45.5059 25.4889 48.3956 28.6404 51.5937C33.774 56.8048 39.7163 62.8364 52.6947 62.8364C66.6583 62.8364 75.3856 55.8545 78.8765 41.8909C73.6401 48.8727 67.5311 51.4909 60.5492 49.7455C56.5657 48.7505 53.7187 45.8589 50.5672 42.6608C45.4336 37.4497 39.4913 31.4182 26.5129 31.4182Z" fill="#38BDF8"/>
</g>
</g>
<defs>
<clipPath id="clip0_48_184">
<rect width="104.727" height="64" fill="white" transform="translate(0.331055)"/>
</clipPath>
</defs>
</svg>
