<svg width="65" height="64" viewBox="0 0 65 64" fill="none" xmlns="http://www.w3.org/2000/svg">
<g clip-path="url(#clip0_48_145)">
<mask id="mask0_48_145" style="mask-type:alpha" maskUnits="userSpaceOnUse" x="0" y="0" width="65" height="64">
<path d="M32.7969 64C50.47 64 64.7969 49.6731 64.7969 32C64.7969 14.3269 50.47 0 32.7969 0C15.1238 0 0.796875 14.3269 0.796875 32C0.796875 49.6731 15.1238 64 32.7969 64Z" fill="black"/>
</mask>
<g mask="url(#mask0_48_145)">
<path d="M32.7969 62.9333C49.8809 62.9333 63.7302 49.084 63.7302 32C63.7302 14.916 49.8809 1.06665 32.7969 1.06665C15.7129 1.06665 1.86353 14.916 1.86353 32C1.86353 49.084 15.7129 62.9333 32.7969 62.9333Z" fill="black" stroke="white" stroke-width="6"/>
<path d="M53.9552 56.0071L25.3806 19.2H19.9968V44.7893H24.3039V24.6697L50.5742 58.6115C51.7597 57.8183 52.8889 56.9475 53.9552 56.0071Z" fill="url(#paint0_linear_48_145)"/>
<path d="M45.9525 19.2H41.6858V44.8H45.9525V19.2Z" fill="url(#paint1_linear_48_145)"/>
</g>
</g>
<defs>
<linearGradient id="paint0_linear_48_145" x1="39.5524" y1="41.4222" x2="52.1746" y2="57.0666" gradientUnits="userSpaceOnUse">
<stop stop-color="white"/>
<stop offset="1" stop-color="white" stop-opacity="0"/>
</linearGradient>
<linearGradient id="paint1_linear_48_145" x1="43.8191" y1="19.2" x2="43.7477" y2="38" gradientUnits="userSpaceOnUse">
<stop stop-color="white"/>
<stop offset="1" stop-color="white" stop-opacity="0"/>
</linearGradient>
<clipPath id="clip0_48_145">
<rect width="64" height="64" fill="white" transform="translate(0.796875)"/>
</clipPath>
</defs>
</svg>
