<svg width="65" height="64" viewBox="0 0 65 64" fill="none" xmlns="http://www.w3.org/2000/svg">
<path d="M56.7668 29.4666L35.0334 7.73329C34.3667 7.06663 33.4334 6.66663 32.5001 6.66663C31.5667 6.66663 30.6334 7.06663 29.9667 7.73329L25.3001 12.4L30.7668 17.8666C31.3001 17.6 31.8334 17.4666 32.5001 17.4666C34.7667 17.4666 36.5001 19.2 36.5001 21.4666C36.5001 22.1333 36.3668 22.6666 36.1001 23.2L41.4334 28.5333C41.9668 28.2666 42.5001 28.1333 43.1667 28.1333C45.4334 28.1333 47.1667 29.8666 47.1667 32.1333C47.1667 34.4 45.4334 36.1333 43.1667 36.1333C40.9001 36.1333 39.1667 34.4 39.1667 32.1333C39.1667 31.4666 39.3001 30.9333 39.5667 30.4L34.2334 25.0666C34.1001 25.0666 33.9667 25.2 33.8334 25.2V39.0666C35.4334 39.6 36.5001 41.0666 36.5001 42.8C36.5001 45.0666 34.7667 46.8 32.5001 46.8C30.2334 46.8 28.5001 45.0666 28.5001 42.8C28.5001 41.0666 29.5667 39.6 31.1667 39.0666V25.0666C29.5667 24.5333 28.5001 23.0666 28.5001 21.3333C28.5001 20.6666 28.6334 20.1333 28.9001 19.6L23.4334 14.1333L8.23342 29.4666C7.56675 30.1333 7.16675 31.0666 7.16675 32C7.16675 32.9333 7.56675 33.8666 8.23342 34.5333L29.9667 56.2666C30.6334 56.9333 31.5667 57.3333 32.5001 57.3333C33.4334 57.3333 34.3667 56.9333 35.0334 56.2666L56.7668 34.5333C57.4334 33.8666 57.8334 32.9333 57.8334 32C57.8334 31.0666 57.4334 30.1333 56.7668 29.4666Z" fill="#F4511E"/>
</svg>
