<svg width="43" height="64" viewBox="0 0 43 64" fill="none" xmlns="http://www.w3.org/2000/svg">
<g clip-path="url(#clip0_48_192)">
<path d="M21.6689 32C21.6689 29.1711 22.7928 26.458 24.7931 24.4576C26.7935 22.4572 29.5066 21.3334 32.3356 21.3334C35.1646 21.3334 37.8777 22.4572 39.8781 24.4576C41.8785 26.458 43.0023 29.1711 43.0023 32C43.0023 34.829 41.8785 37.5421 39.8781 39.5425C37.8777 41.5429 35.1646 42.6667 32.3356 42.6667C29.5066 42.6667 26.7935 41.5429 24.7931 39.5425C22.7928 37.5421 21.6689 34.829 21.6689 32Z" fill="#1ABCFE"/>
<path d="M0.335693 53.3333C0.335693 50.5043 1.4595 47.7912 3.45989 45.7908C5.46028 43.7904 8.17338 42.6666 11.0024 42.6666H21.669V53.3333C21.669 56.1623 20.5452 58.8754 18.5448 60.8758C16.5444 62.8762 13.8313 64 11.0024 64C8.17338 64 5.46028 62.8762 3.45989 60.8758C1.4595 58.8754 0.335693 56.1623 0.335693 53.3333Z" fill="#0ACF83"/>
<path d="M21.6689 0V21.3333H32.3356C35.1646 21.3333 37.8777 20.2095 39.8781 18.2091C41.8785 16.2087 43.0023 13.4956 43.0023 10.6667C43.0023 7.83769 41.8785 5.12458 39.8781 3.12419C37.8777 1.12381 35.1646 0 32.3356 0L21.6689 0Z" fill="#FF7262"/>
<path d="M0.335693 10.6667C0.335693 13.4956 1.4595 16.2087 3.45989 18.2091C5.46028 20.2095 8.17338 21.3333 11.0024 21.3333H21.669V0H11.0024C8.17338 0 5.46028 1.12381 3.45989 3.12419C1.4595 5.12458 0.335693 7.83769 0.335693 10.6667Z" fill="#F24E1E"/>
<path d="M0.335693 32C0.335693 34.829 1.4595 37.5421 3.45989 39.5425C5.46028 41.5429 8.17338 42.6667 11.0024 42.6667H21.669V21.3334H11.0024C8.17338 21.3334 5.46028 22.4572 3.45989 24.4576C1.4595 26.458 0.335693 29.1711 0.335693 32Z" fill="#A259FF"/>
</g>
<defs>
<clipPath id="clip0_48_192">
<rect width="42.6667" height="64" fill="white" transform="translate(0.335693)"/>
</clipPath>
</defs>
</svg>
