<svg width="71" height="64" viewBox="0 0 71 64" fill="none" xmlns="http://www.w3.org/2000/svg">
<g clip-path="url(#clip0_48_137)">
<path d="M35.7285 38.7725C39.4008 38.7725 42.3778 35.7404 42.3778 32C42.3778 28.2597 39.4008 25.2275 35.7285 25.2275C32.0561 25.2275 29.0791 28.2597 29.0791 32C29.0791 35.7404 32.0561 38.7725 35.7285 38.7725Z" fill="#087EA4"/>
<path d="M35.7284 47.238C54.0901 47.238 68.9752 40.4157 68.9752 31.9999C68.9752 23.5842 54.0901 16.7618 35.7284 16.7618C17.3668 16.7618 2.48169 23.5842 2.48169 31.9999C2.48169 40.4157 17.3668 47.238 35.7284 47.238Z" stroke="#087EA4" stroke-width="3"/>
<path d="M22.7719 39.619C31.9527 55.8152 45.1961 65.5336 52.3519 61.3257C59.5076 57.1178 57.866 40.5771 48.6851 24.3809C39.5043 8.18475 26.2609 -1.53366 19.1051 2.67422C11.9494 6.88211 13.591 23.4228 22.7719 39.619Z" stroke="#087EA4" stroke-width="3"/>
<path d="M22.7717 24.3808C13.5909 40.577 11.9492 57.1177 19.105 61.3256C26.2607 65.5335 39.5041 55.8151 48.685 39.6189C57.8658 23.4228 59.5075 6.88205 52.3517 2.67416C45.196 -1.53372 31.9525 8.18469 22.7717 24.3808Z" stroke="#087EA4" stroke-width="3"/>
</g>
<defs>
<clipPath id="clip0_48_137">
<rect width="69.8182" height="64" fill="white" transform="translate(0.819336)"/>
</clipPath>
</defs>
</svg>
