<svg width="96" height="27" viewBox="0 0 96 27" fill="none" xmlns="http://www.w3.org/2000/svg">
<path d="M0.195312 14.1044V10.3544L15.1953 3.74929V8.06392L4.92543 12.1868L5.06392 11.9631V12.4957L4.92543 12.272L15.1953 16.3949V20.7095L0.195312 14.1044ZM39.2366 12.0909C39.2366 14.4702 38.7857 16.4943 37.8837 18.1634C36.9888 19.8324 35.7672 21.1072 34.2189 21.9879C32.6777 22.8615 30.9447 23.2983 29.02 23.2983C27.0811 23.2983 25.3411 22.858 23.7999 21.9773C22.2587 21.0966 21.0406 19.8217 20.1457 18.1527C19.2509 16.4837 18.8034 14.4631 18.8034 12.0909C18.8034 9.71165 19.2509 7.6875 20.1457 6.01847C21.0406 4.34943 22.2587 3.07812 23.7999 2.20455C25.3411 1.32386 27.0811 0.883522 29.02 0.883522C30.9447 0.883522 32.6777 1.32386 34.2189 2.20455C35.7672 3.07812 36.9888 4.34943 37.8837 6.01847C38.7857 7.6875 39.2366 9.71165 39.2366 12.0909ZM34.5598 12.0909C34.5598 10.5497 34.329 9.25 33.8673 8.19176C33.4128 7.13352 32.77 6.33097 31.9391 5.78409C31.1081 5.23722 30.1351 4.96378 29.02 4.96378C27.905 4.96378 26.932 5.23722 26.101 5.78409C25.27 6.33097 24.6237 7.13352 24.1621 8.19176C23.7075 9.25 23.4803 10.5497 23.4803 12.0909C23.4803 13.6321 23.7075 14.9318 24.1621 15.9901C24.6237 17.0483 25.27 17.8509 26.101 18.3977C26.932 18.9446 27.905 19.218 29.02 19.218C30.1351 19.218 31.1081 18.9446 31.9391 18.3977C32.77 17.8509 33.4128 17.0483 33.8673 15.9901C34.329 14.9318 34.5598 13.6321 34.5598 12.0909ZM42.0537 23V1.18182H46.6667V10.8018H46.9543L54.8059 1.18182H60.335L52.2384 10.951L60.4309 23H54.9124L48.9358 14.0298L46.6667 16.7997V23H42.0537ZM77.8983 0.159089L70.867 26.2812H66.9572L73.9885 0.159089H77.8983ZM95.3691 16.1499L80.3691 22.755V18.4403L90.639 14.3175L90.5005 14.5412V14.0085L90.639 14.2322L80.3691 10.1094V5.79474L95.3691 12.3999V16.1499Z" fill="url(#paint0_linear_2_4)"/>
<defs>
<linearGradient id="paint0_linear_2_4" x1="-2.5" y1="12" x2="102.5" y2="12" gradientUnits="userSpaceOnUse">
<stop stop-color="#FA6E00"/>
<stop offset="1" stop-color="#E60026"/>
</linearGradient>
</defs>
</svg>
